<svg xmlns="http://www.w3.org/2000/svg" id="Layer_1" viewBox="0 0 1906 667">
    <defs>
        <style>.cls-1{fill:#43a747;}.cls-2{fill:#47db00;}.cls-3{fill:#020b16;}.cls-4{fill:none;stroke:#6060e2;stroke-linecap:round;stroke-miterlimit:10;stroke-width:6px;}.cls-5{fill:#354caf;}.cls-6{fill:#6060e2;}</style>
    </defs>
    <title>TA_Logo_10yr</title>
    <g id="Artwork_11">
        <rect class="cls-1" x="103.93" y="421.73" width="166.37" height="166.37" transform="translate(-302.22 280.2) rotate(-45)"/>
        <rect class="cls-2" x="280.39" y="279.73" width="166.37" height="332.73" transform="translate(-208.95 387.74) rotate(-45)"/>
        <path class="cls-3" d="M718.81,355H775c-4.45-14.91-14.66-23-28.78-23s-23.94,8.57-27.59,23m87.16,22h-88c2.73,16.93,13.17,26.09,28.42,26.09,10.93,0,19.9-5.42,24.68-14.09H804c-8.45,26.54-30.72,43.47-57.72,43.47-34.35,0-60.34-27.88-60.34-64.42,0-36.71,25.81-64.41,60.34-64.41,35.71,0,60.21,28.86,60.21,64a78.34,78.34,0,0,1-.61,9.67"/>
        <rect class="cls-3" x="820.81" y="269.98" width="31" height="159"/>
        <path class="cls-3" d="M898.81,355h56.32c-4.44-14.91-14.66-23-28.78-23s-23.93,8.57-27.59,23m87,22H897.93c2.73,16.93,13.18,26.09,28.42,26.09,10.94,0,19.91-5.42,24.68-14.09h33.05c-8.46,26.54-30.71,43.47-57.73,43.47C892,432.45,866,404.57,866,368c0-36.71,25.81-64.41,60.32-64.41,35.73,0,60.23,28.86,60.23,64a78.35,78.35,0,0,1-.62,9.67"/>
        <path class="cls-3" d="M1073.81,306v31h-14.63c-17.46,0-24.37,8.27-24.37,28.31V429h-31V307h20l5.59,15c8.28-10.78,18.79-15.62,33.73-16Z"/>
        <rect class="cls-3" x="1089.81" y="306.98" width="31" height="122"/>
        <rect class="cls-3" x="1089.81" y="269.98" width="31" height="23"/>
        <polygon class="cls-3" points="1213.06 428.98 1175.81 370.62 1175.81 428.98 1144.81 428.98 1144.81 269.98 1175.81 269.98 1175.81 361.19 1210.76 306.98 1246.99 306.98 1207.63 365.07 1251.19 428.98 1213.06 428.98"/>
        <path class="cls-3" d="M619.89,563h39.56l-19.88-56.51Zm49.86,30H609.68l-10.36,30H564.77l59.08-158h30.79l61,158H680.28Z"/>
        <path class="cls-3" d="M716.74,560.81c0-36,26.24-63.18,61.1-63.18,29.72,0,52.78,19.74,58.36,49.35H805.4c-5-11.83-15.37-18.78-27.73-18.78-16.83,0-29.48,14.16-29.48,32.79s12.87,33.15,29.48,33.15c12.54,0,22.45-7.31,27.69-20.16h31.23c-5.4,30.23-28.9,50.74-58.92,50.74-34.53,0-60.93-27.87-60.93-63.91"/>
        <path class="cls-3" d="M946.57,561.51c0-19.16-13.4-33.43-31.67-33.43s-31.7,14.31-31.7,33.43,13.43,33.41,31.7,33.41,31.67-14.26,31.67-33.41M977.81,501V623H953.14l-2.71-10.91a55,55,0,0,1-37.71,14.54c-35,0-61.05-27.71-61.05-64.63s26-64.27,61.05-64.27A55.25,55.25,0,0,1,951,512.64L954.32,501Z"/>
        <path class="cls-3" d="M1091.52,561.69c0-19.12-13.43-33.42-31.7-33.42s-31.66,14.27-31.66,33.42,13.39,33.42,31.66,33.42,31.7-14.36,31.7-33.42M1120.81,465V623h-22.89l-3.67-10.15a52.87,52.87,0,0,1-35.91,13.78c-34.79,0-60.29-27.67-60.29-64.57s25.5-64.4,60.29-64.4a53,53,0,0,1,31.47,10.1V465Z"/>
        <path class="cls-3" d="M1169.81,548h56.7c-4.45-14.91-14.66-23-28.78-23s-23.94,8.57-27.59,23m87.67,23h-88.5c2.73,16.58,13.17,25.74,28.42,25.74,10.93,0,19.9-5.42,24.67-13.74h33.06c-8.46,26.19-30.72,43.12-57.73,43.12-34.34,0-60.32-27.88-60.32-64.41,0-36.73,25.8-64.42,60.32-64.42,35.72,0,60.22,28.86,60.22,64a80.34,80.34,0,0,1-.61,9.67"/>
        <path class="cls-3" d="M1449.81,546v77h-31V552c0-16.28-6.11-24.85-17.54-24.85-14.1,0-22.46,10.84-22.46,29.92v66h-31V552c0-16.28-5.92-24.85-17.22-24.85-14.26,0-22.78,10.84-22.78,29.92v66h-31V501h21.77l5.9,15.11c8.25-10.91,21-18,34.69-18,14.8,0,27,7.26,33.77,19.51a43.44,43.44,0,0,1,36-19.51c24.08,0,41,19.8,41,48.36"/>
        <path class="cls-3" d="M1582.86,501l-50.74,120.39c-13.95,33.07-26.21,45.61-52.34,45.61h-13V637h10.86c15.14,0,19.07-4.23,26.2-22.63l.45-1L1455.12,501h34.23L1520.4,576l29-75.06Z"/>
        <polygon class="cls-3" points="696.81 301.98 655.81 301.98 655.81 428.98 622.81 428.98 622.81 301.98 580.81 301.98 580.81 269.98 696.81 269.98 696.81 301.98"/>
    </g>
    <path class="cls-4" d="M1679.05,374.82s99.3,98.9-10.57,147.82-106.22,70.56-42.16,83.07-34.76,25.89-21.08,40.47"/>
    <path class="cls-5" d="M1685.47,349.14l-13-7.48-5.42,14-3.84,36s15.81,10.42,23.89-8.41c18.09,9.61,23.89-8.41,23.89-8.41Z"/>
    <ellipse class="cls-6" cx="1616.88" cy="183.76" rx="159.7" ry="184.17" transform="translate(30.77 547.53) rotate(-19.4)"/>
    <ellipse class="cls-6" cx="1549.74" cy="131.96" rx="74.76" ry="64.83" transform="translate(1134.99 1630.99) rotate(-79.4)"/>
    <path class="cls-6" d="M1682.83,371a141.33,141.33,0,0,0,17.08-7.37l-14.44-14.49-13-7.48-5.42,14L1664.9,376A140.61,140.61,0,0,0,1682.83,371Z"/>
    <path class="cls-5" d="M1628.55,4.47c31.94,22.46,58.29,56.33,73,98.17,33.78,95.94-6.27,197.47-89.46,226.77a142.07,142.07,0,0,1-72.85,5.57c41.28,29,91.88,39,138.79,22.49,83.19-29.3,123.24-130.82,89.46-226.76C1743.43,62.33,1688.34,15.27,1628.55,4.47Z"/>
    <path class="cls-6" d="M1720.28,559.43s68.81,87.11,155.81,88.83l-15.53-35.63,45.2-10.54S1779.92,597.84,1739.29,498Z"/>
    <path class="cls-6" d="M500.8,114.09S424,157.41,411.91,225.51l29.87-7.82,2.73,36.79s18.8-98.28,102.17-117.92Z"/>
    <path class="cls-2" d="M147.09,344.33s-47.29,63.56-118,51.33l9.06-28L.24,351.55s102.12,16.19,125.16-62.67Z"/>
    <path class="cls-1" d="M1287.12,189.16s48,52.66,25,113L1289,289.32,1268.25,320s31.85-87.33-33.78-121.23Z"/>
    <path class="cls-2" d="M1610.23,282.79l-44.94,18.89L1518.17,189.6l-30.55,27.9-18.34-43.61,68.13-64.34Z"/>
    <path class="cls-2" d="M1736.27,127.13c23.25,55.31,3.57,102.58-39.31,120.6s-90.42-1-113.67-56.28-3.44-102.63,39.31-120.6S1713,71.83,1736.27,127.13Zm-106.21,44.65c12.5,29.73,31.84,39.95,48.77,32.83s23.17-28.09,10.67-57.81-31.84-39.94-48.77-32.83S1617.57,142.06,1630.06,171.78Z"/>
</svg>